<svg id="Layer_1" xmlns="http://www.w3.org/2000/svg" viewBox="0 0 408.2 133"><style>.st0{fill:#fff}</style><path class="st0" d="M35.4 19.8L18 37.2c-5.6 5.6-5.6 14.6 0 20.2l17.4 17.4c5.5 5.5 5.5 14.3 0 19.8l-27-27c-11.2-11.2-11.2-29.5 0-40.7L35.4 0c5.4 5.5 5.4 14.3 0 19.8z"/><path class="st0" d="M35.6 113.2L53 95.8c5.6-5.6 5.6-14.6 0-20.2L35.6 58.3c-5.5-5.5-5.5-14.3 0-19.8l26.9 26.9c11.2 11.2 11.2 29.5 0 40.7L35.6 133c-5.5-5.5-5.5-14.3 0-19.8zM249.9 49.9c-16.3 0-27 11.2-27.1 28.4v23.1c0 2.3 1.1 5 6.2 5 4.9 0 5.9-2.7 5.9-5V78.3c0-11.5 5.7-18.6 14.9-18.6h.1c9.2 0 14.9 7.1 14.9 18.6v23.1c0 2.3 1 5 5.9 5 5.1 0 6.2-2.7 6.2-5V78.3c0-17.2-10.7-28.4-27-28.4zM403.4 49.9h-.3c-16.3 0-27 11.2-27.1 28.4v23.1c0 2.3 1.1 5 6.2 5 4.9 0 5.9-2.7 5.9-5V78.3c0-11.5 5.7-18.6 14.9-18.6h.2c1.3 0 2.6-.5 3.6-1.5.9-.9 1.4-2.1 1.4-3.4 0-2.7-2.2-4.9-4.8-4.9zM131.7 59.3c-8.5-3.6-15.9-6.8-15.9-13.6 0-6.3 5.5-10.3 14.1-10.3 4.6 0 8.6 1.2 13.4 4 .5.3 1 .6 1.4.8 1.5.9 2.4 1.5 3.5 1.5 2.9 0 5.3-3.3 5.3-6 0-2.4-2.1-4.1-4.5-5.6-5.2-3.4-12.1-5.3-19.1-5.3-15.5 0-25.9 8.7-25.9 21.6 0 13.6 11.8 18.7 22.2 23.1 9.1 3.9 17 7.3 17 15.2 0 7.2-6.3 12-15.6 12-5.1 0-9.5-1.5-14.4-4.9L112 91c-1.8-1.2-2.8-1.9-4.3-1.9-2.8 0-5.3 3.2-5.3 5.9 0 2 1.3 3.8 4.3 6 5.8 4.2 12.9 6.4 20.7 6.4 16.5 0 27.6-9.4 27.6-23.3 0-14.9-12.3-20.2-23.3-24.8zM177.4 82.2h26.9c4.3 0 8.8-.9 8.8-7.9 0-14.3-9.7-24.4-23.5-24.4-15.2 0-25 11.3-25 28.7s10.2 28.2 26.5 28.2c6.7 0 12.4-1.6 17-4.7 2.7-1.7 3.9-3.4 3.9-5.4 0-2.5-2-5.3-5.2-5.3-1.4 0-2.7.8-4.4 2l-.2.2c-2.9 1.9-6.4 2.9-10.6 2.9-8.5 0-13.6-4.4-15.1-13.2-.1-.3 0-.6.2-.8.2-.2.4-.3.7-.3zm-.8-10.4c1.4-7.9 5.9-12.2 12.7-12.2 7 0 11.5 4.6 12.2 12.3 0 .3-.1.5-.3.8-.2.2-.4.3-.7.3h-23c-.3 0-.6-.1-.7-.3-.2-.3-.3-.6-.2-.9zM294.9 26.3c-4.3 0-7.4 3.1-7.4 7.3 0 4.3 3.1 7.4 7.4 7.4 4.3 0 7.4-3.1 7.4-7.4 0-4.2-3.1-7.3-7.4-7.3zM294.8 50.5c-4.8 0-5.7 2.7-5.7 5v45.9c0 2.3 1 5 6 5 4.8 0 5.7-2.7 5.7-5V55.5c0-2.3-1.1-5-6-5zM338.5 49.9c-16.5 0-27.1 11.3-27.1 28.7 0 17.3 10.6 28.5 26.9 28.5 16.6 0 27.2-11.3 27.2-28.7s-10.6-28.5-27-28.5zm0 47.2c-9.1 0-15-7.4-15-18.7 0-11.5 5.7-18.6 14.9-18.6s14.9 7.2 14.9 18.9c0 11.3-5.7 18.4-14.8 18.4z"/></svg>